<svg width="334" height="33" viewBox="0 0 334 33" fill="none" xmlns="http://www.w3.org/2000/svg">
<path d="M8.92342 31.9124H0L10.0537 1.34883H21.3567L31.4105 31.9124H22.487L15.8242 9.76576H15.5862L8.92342 31.9124ZM7.25772 19.8541H24.0338V26.0624H7.25772V19.8541Z" fill="#D7DADE"/>
<path d="M34.344 31.9124V1.34883H47.4912C49.7518 1.34883 51.7298 1.76172 53.4253 2.58749C55.1207 3.41327 56.4394 4.60219 57.3813 6.15424C58.3232 7.7063 58.7942 9.56678 58.7942 11.7357C58.7942 13.9245 58.3084 15.77 57.3367 17.2724C56.375 18.7747 55.0216 19.9089 53.2766 20.6749C51.5414 21.441 49.5138 21.8241 47.1938 21.8241H39.3411V15.3771H45.528C46.4997 15.3771 47.3276 15.2577 48.0117 15.0189C48.7058 14.7702 49.2362 14.3772 49.6031 13.8399C49.9798 13.3027 50.1682 12.6013 50.1682 11.7357C50.1682 10.8602 49.9798 10.1488 49.6031 9.6016C49.2362 9.04445 48.7058 8.63654 48.0117 8.37786C47.3276 8.10924 46.4997 7.97493 45.528 7.97493H42.6131V31.9124H34.344ZM52.1909 17.8842L59.8055 31.9124H50.8226L43.3864 17.8842H52.1909Z" fill="#D7DADE"/>
<path d="M90.7549 12.8102H82.3669C82.3074 12.1137 82.1488 11.482 81.891 10.9149C81.6431 10.3478 81.2961 9.86028 80.8499 9.45237C80.4137 9.0345 79.8832 8.71613 79.2586 8.49725C78.6339 8.26842 77.925 8.15401 77.1318 8.15401C75.7438 8.15401 74.5688 8.49228 73.6071 9.16882C72.6553 9.84536 71.9315 10.8154 71.4357 12.0789C70.9499 13.3425 70.707 14.8597 70.707 16.6306C70.707 18.5011 70.9548 20.068 71.4506 21.3316C71.9563 22.5852 72.685 23.5303 73.6368 24.1671C74.5887 24.7939 75.7338 25.1073 77.0723 25.1073C77.8358 25.1073 78.5199 25.0127 79.1247 24.8237C79.7295 24.6247 80.255 24.3412 80.7012 23.9731C81.1474 23.6049 81.5093 23.1622 81.7869 22.6449C82.0744 22.1176 82.2678 21.5256 82.3669 20.8689L90.7549 20.9286C90.6558 22.222 90.2939 23.5403 89.6693 24.8834C89.0446 26.2166 88.1572 27.4503 87.0071 28.5845C85.8669 29.7087 84.454 30.6141 82.7685 31.3006C81.0829 31.9871 79.1247 32.3303 76.8939 32.3303C74.0979 32.3303 71.5894 31.7284 69.3685 30.5245C67.1574 29.3207 65.4074 27.5498 64.1185 25.2117C62.8395 22.8737 62.2 20.0133 62.2 16.6306C62.2 13.228 62.8544 10.3627 64.1631 8.03462C65.4719 5.69658 67.2368 3.93062 69.4577 2.73673C71.6786 1.53289 74.1574 0.930969 76.8939 0.930969C78.8174 0.930969 80.5872 1.19462 82.2033 1.72192C83.8195 2.24922 85.2373 3.02028 86.4568 4.03509C87.6764 5.03994 88.6579 6.27861 89.4015 7.75107C90.1452 9.22354 90.5963 10.9099 90.7549 12.8102Z" fill="#D7DADE"/>
<path d="M94.5065 31.9124V1.34883H102.776V13.2877H113.722V1.34883H121.991V31.9124H113.722V19.9735H102.776V31.9124H94.5065Z" fill="#D7DADE"/>
<path d="M134.186 1.34883V31.9124H125.917V1.34883H134.186Z" fill="#D7DADE"/>
<path d="M137.272 8.03462V1.34883H163.745V8.03462H154.583V31.9124H146.433V8.03462H137.272Z" fill="#D7DADE"/>
<path d="M166.857 31.9124V1.34883H188.808V8.03462H175.126V13.2877H187.678V19.9735H175.126V25.2267H188.749V31.9124H166.857Z" fill="#D7DADE"/>
<path d="M221.346 12.8102H212.957C212.898 12.1137 212.739 11.482 212.482 10.9149C212.234 10.3478 211.887 9.86028 211.441 9.45237C211.004 9.0345 210.474 8.71613 209.849 8.49725C209.225 8.26842 208.516 8.15401 207.722 8.15401C206.334 8.15401 205.159 8.49228 204.198 9.16882C203.246 9.84536 202.522 10.8154 202.026 12.0789C201.54 13.3425 201.298 14.8597 201.298 16.6306C201.298 18.5011 201.545 20.068 202.041 21.3316C202.547 22.5852 203.276 23.5303 204.227 24.1671C205.179 24.7939 206.324 25.1073 207.663 25.1073C208.426 25.1073 209.111 25.0127 209.715 24.8237C210.32 24.6247 210.846 24.3412 211.292 23.9731C211.738 23.6049 212.1 23.1622 212.377 22.6449C212.665 22.1176 212.858 21.5256 212.957 20.8689L221.346 20.9286C221.246 22.222 220.884 23.5403 220.26 24.8834C219.635 26.2166 218.748 27.4503 217.598 28.5845C216.457 29.7087 215.045 30.6141 213.359 31.3006C211.674 31.9871 209.715 32.3303 207.484 32.3303C204.688 32.3303 202.18 31.7284 199.959 30.5245C197.748 29.3207 195.998 27.5498 194.709 25.2117C193.43 22.8737 192.791 20.0133 192.791 16.6306C192.791 13.228 193.445 10.3627 194.754 8.03462C196.062 5.69658 197.827 3.93062 200.048 2.73673C202.269 1.53289 204.748 0.930969 207.484 0.930969C209.408 0.930969 211.178 1.19462 212.794 1.72192C214.41 2.24922 215.828 3.02028 217.047 4.03509C218.267 5.03994 219.249 6.27861 219.992 7.75107C220.736 9.22354 221.187 10.9099 221.346 12.8102Z" fill="#D7DADE"/>
<path d="M224.264 8.03462V1.34883H250.737V8.03462H241.576V31.9124H233.426V8.03462H224.264Z" fill="#D7DADE"/>
<path d="M271.874 1.34883H280.143V20.9286C280.143 23.2567 279.588 25.2714 278.478 26.9727C277.377 28.6641 275.84 29.9724 273.867 30.8976C271.894 31.813 269.604 32.2706 266.996 32.2706C264.369 32.2706 262.069 31.813 260.095 30.8976C258.122 29.9724 256.586 28.6641 255.485 26.9727C254.394 25.2714 253.849 23.2567 253.849 20.9286V1.34883H262.118V20.2123C262.118 21.1575 262.326 22.0031 262.743 22.7493C263.159 23.4856 263.734 24.0626 264.468 24.4805C265.212 24.8983 266.054 25.1073 266.996 25.1073C267.948 25.1073 268.791 24.8983 269.525 24.4805C270.258 24.0626 270.833 23.4856 271.25 22.7493C271.666 22.0031 271.874 21.1575 271.874 20.2123V1.34883Z" fill="#D7DADE"/>
<path d="M284.073 31.9124V1.34883H297.221C299.481 1.34883 301.459 1.76172 303.155 2.58749C304.85 3.41327 306.169 4.60219 307.111 6.15424C308.053 7.7063 308.524 9.56678 308.524 11.7357C308.524 13.9245 308.038 15.77 307.066 17.2724C306.104 18.7747 304.751 19.9089 303.006 20.6749C301.271 21.441 299.243 21.8241 296.923 21.8241H289.071V15.3771H295.257C296.229 15.3771 297.057 15.2577 297.741 15.0189C298.435 14.7702 298.966 14.3772 299.333 13.8399C299.709 13.3027 299.898 12.6013 299.898 11.7357C299.898 10.8602 299.709 10.1488 299.333 9.6016C298.966 9.04445 298.435 8.63654 297.741 8.37786C297.057 8.10924 296.229 7.97493 295.257 7.97493H292.342V31.9124H284.073ZM301.92 17.8842L309.535 31.9124H300.552L293.116 17.8842H301.92Z" fill="#D7DADE"/>
<path d="M312.048 31.9124V1.34883H334V8.03462H320.317V13.2877H332.87V19.9735H320.317V25.2267H333.941V31.9124H312.048Z" fill="#D7DADE"/>
</svg>
